<svg width="24" height="24" viewBox="0 0 24 24" fill="none" xmlns="http://www.w3.org/2000/svg">
<path d="M3 8.25V3H8.25M15.75 3H21V8.25M21 15.75V21H15.75M8.25 21H3V15.75" stroke="#3E3E3E" stroke-width="1.8" stroke-linecap="round" stroke-linejoin="round"/>
<path fill-rule="evenodd" clip-rule="evenodd" d="M7.5 9.83309V7.49976H9.83333V9.83309H7.5ZM6 7.33309C6 6.59671 6.59695 5.99976 7.33333 5.99976H10C10.7364 5.99976 11.3333 6.59671 11.3333 7.33309V9.99975C11.3333 10.7361 10.7364 11.3331 10 11.3331H7.33333C6.59695 11.3331 6 10.7361 6 9.99976V7.33309ZM14.1667 9.83309V7.49976H16.5V9.83309H14.1667ZM12.6667 7.33309C12.6667 6.59671 13.2636 5.99976 14 5.99976H16.6667C17.4031 5.99976 18 6.59671 18 7.33309V9.99975C18 10.7361 17.4031 11.3331 16.6667 11.3331H14C13.2636 11.3331 12.6667 10.7361 12.6667 9.99976V7.33309ZM10 13.9994H7.33333L7.33333 16.666L10 16.666L10 13.9994ZM7.33333 12.666C6.59695 12.666 6 13.263 6 13.9994V16.666C6 17.4024 6.59695 17.9994 7.33333 17.9994H10C10.7364 17.9994 11.3333 17.4024 11.3333 16.666V13.9994C11.3333 13.263 10.7364 12.666 10 12.666H7.33333ZM12.5833 13.3329C12.5833 12.9187 12.9191 12.5829 13.3333 12.5829H15.3333C15.7475 12.5829 16.0833 12.9187 16.0833 13.3329C16.0833 13.7471 15.7475 14.0829 15.3333 14.0829H14.0833V15.3329C14.0833 15.7471 13.7475 16.0829 13.3333 16.0829C12.9191 16.0829 12.5833 15.7471 12.5833 15.3329V13.3329ZM17.3333 12.8712C17.7475 12.8712 18.0833 13.2069 18.0833 13.6212V17.3329C18.0833 17.7471 17.7475 18.0829 17.3333 18.0829H15.3333C14.9191 18.0829 14.5833 17.7471 14.5833 17.3329C14.5833 16.9187 14.9191 16.5829 15.3333 16.5829H16.5833V13.6212C16.5833 13.2069 16.9191 12.8712 17.3333 12.8712ZM12.6001 16.8404C12.6001 16.6931 12.7195 16.5737 12.8667 16.5737H13.8334C13.9807 16.5737 14.1001 16.6931 14.1001 16.8404V17.8071C14.1001 17.9544 13.9807 18.0737 13.8334 18.0737H12.8667C12.7195 18.0737 12.6001 17.9544 12.6001 17.8071V16.8404Z" fill="#3E3E3E"/>
</svg>
