<svg width="29" height="29" viewBox="0 0 29 29" fill="none" xmlns="http://www.w3.org/2000/svg">
<path d="M2.52319 15.7738H1.8704C1.38969 15.7738 1 16.1635 1 16.6442V25.4569C1 25.9376 1.38969 26.3273 1.8704 26.3273H28.0911M28.0911 26.3273V27.5241C28.0911 28.0048 27.7014 28.3945 27.2207 28.3945H2.16053C1.9722 28.3945 1.78895 28.3334 1.63829 28.2205L1 27.7417M28.0911 26.3273V16.6442C28.0911 16.1635 27.7014 15.7738 27.2207 15.7738H8.61597M25.6975 21.9754V18.929C25.6975 18.4483 25.3078 18.0586 24.8271 18.0586H24.3919C23.9112 18.0586 23.5215 18.4483 23.5215 18.929V23.2809C23.5215 23.7617 23.9112 24.1513 24.3919 24.1513H24.8844C24.9903 24.1513 25.0952 24.1311 25.1935 24.0918V24.0918C25.4417 23.9926 25.6271 23.7802 25.6919 23.5209L25.6975 23.4985M14.056 22.8458H11.5536C11.0729 22.8458 10.6832 22.4561 10.6832 21.9754V20.2346C10.6832 19.7539 11.0729 19.3642 11.5536 19.3642H20.1487C20.6294 19.3642 21.0191 19.7539 21.0191 20.2346V21.9754C21.0191 22.4561 20.6294 22.8458 20.1487 22.8458H14.056ZM14.056 22.8458V20.7786M12.6416 7.8314L8.16602 10.4335C8.03316 10.5107 7.88222 10.5514 7.72854 10.5514H7.29684C6.62635 10.5514 6.20763 9.82516 6.54358 9.2449L6.87067 8.67992C6.94498 8.55157 7.05085 8.44434 7.17823 8.3684L12.6416 5.11141M12.6416 5.11141L12.5377 4.94525C12.2914 4.55108 12.3982 4.03289 12.7804 3.76831L12.7963 3.75726C13.1916 3.48364 13.7338 3.58222 14.0074 3.97745L14.4912 4.67621M12.6416 5.11141L14.0368 7.16325C14.2884 7.53325 14.7912 7.6314 15.1634 7.38321L15.4405 7.1985C15.6411 7.06477 15.7039 6.79859 15.5843 6.58928V6.58928C15.4605 6.37263 15.5326 6.09676 15.7466 5.96839L20.1657 3.31695C20.2267 3.28033 20.2855 3.23793 20.3236 3.17784C20.478 2.9346 20.5749 2.39404 20.0399 1.62983C19.4704 0.816201 18.8565 0.95327 18.5715 1.15235C18.5337 1.17874 18.497 1.20673 18.4577 1.23081L15.144 3.26182M6.54878 19.5818C6.40371 19.5093 5.56958 19.4549 4.80799 19.5818C4.19388 19.6841 3.8255 20.0422 3.61881 20.4084C3.37838 20.8344 3.41126 21.3724 3.6875 21.7761C4.00586 22.2413 4.59368 22.6856 5.56958 22.6282C6.58604 22.5684 7.24995 22.1971 7.6248 21.853C7.88952 21.6099 8.0086 21.2442 7.9454 20.8904C7.91242 20.7058 7.8498 20.4951 7.74558 20.2346M5.78718 12.8362L4.65692 14.8912C4.61284 14.9714 4.58139 15.0577 4.56507 15.1477C4.42521 15.9187 4.30771 17.0794 5.78718 17.0794C7.31038 17.0794 7.31038 15.7738 6.98398 15.0122L5.78718 12.8362Z" stroke="#3E3E3E" stroke-width="0.870397" stroke-linecap="round" stroke-linejoin="round"/>
<circle cx="14.056" cy="17.5147" r="0.543998" fill="#3E3E3E"/>
<circle cx="17.5375" cy="17.5147" r="0.543998" fill="#3E3E3E"/>
</svg>
